<svg xmlns:dc="http://purl.org/dc/elements/1.1/" xmlns:cc="http://creativecommons.org/ns#" xmlns:rdf="http://www.w3.org/1999/02/22-rdf-syntax-ns#" xmlns:svg="http://www.w3.org/2000/svg" xmlns="http://www.w3.org/2000/svg" xmlns:sodipodi="http://sodipodi.sourceforge.net/DTD/sodipodi-0.dtd" xmlns:inkscape="http://www.inkscape.org/namespaces/inkscape" version="1.1" x="0px" y="0px" viewBox="0 0 100 125"><g transform="translate(0,-952.36218)"><g transform="translate(5,957.36218)"><path d="M 45,0 C 20.19685,0 0,20.19685 0,45 0,69.80315 20.19685,90 45,90 69.80315,90 90,69.80315 90,45 90,20.19685 69.80315,0 45,0 z m -3.011811,6.484252 0,11.515748 -10.629921,0 c 0.212598,-0.46063 0.425197,-0.885827 0.637795,-1.311024 2.870079,-5.527559 6.377953,-8.9645666 9.992126,-10.204724 z m 6.023622,0 c 3.614173,1.2401574 7.122047,4.677165 9.992126,10.204724 0.212598,0.425197 0.425197,0.850394 0.637795,1.311024 l -10.629921,0 0,-11.515748 z M 29.586614,9.1417323 C 28.523622,10.629921 27.566929,12.224409 26.681102,13.889764 26.007874,15.200787 25.405512,16.582677 24.80315,18 l -7.972441,0 c 3.614173,-3.755906 7.937008,-6.767717 12.755905,-8.8582677 z m 30.826772,0 C 65.232283,11.232283 69.555118,14.244094 73.169291,18 L 65.19685,18 C 64.594488,16.582677 63.992126,15.200787 63.318898,13.889764 62.433071,12.224409 61.476378,10.629921 60.413386,9.1417323 z M 12.11811,23.988189 l 10.629921,0 c -0.885826,3.153543 -1.559055,6.519685 -2.019685,10.027559 l -13.1811019,0 C 8.6102362,30.437008 10.169291,27.070866 12.11811,23.988189 z m 16.901575,0 12.968504,0 0,10.027559 -15.200787,0 c 0.496063,-3.57874 1.27559,-6.944882 2.232283,-10.027559 z m 18.992126,0 12.968504,0 c 0.956693,3.082677 1.73622,6.448819 2.232283,10.027559 l -15.200787,0 0,-10.027559 z m 19.240158,0 10.629921,0 c 1.948819,3.082677 3.507874,6.448819 4.570866,10.027559 l -13.181102,0 c -0.46063,-3.507874 -1.133859,-6.874016 -2.019685,-10.027559 z m -60.9448824,16.015748 13.8543304,0 C 20.055118,41.633858 19.984252,43.299213 19.984252,45 c 0,1.700787 0.07087,3.366142 0.177165,4.996063 l -13.8543304,0 C 6.0944882,48.366142 5.988189,46.700787 5.988189,45 c 0,-1.700787 0.1062992,-3.366142 0.3188976,-4.996063 z m 19.8425194,0 15.838583,0 0,9.992126 -15.838583,0 C 26.043307,48.366142 26.007874,46.700787 26.007874,45 c 0,-1.700787 0.03543,-3.366142 0.141732,-4.996063 z m 21.862205,0 15.838583,0 c 0.106299,1.629921 0.141732,3.295276 0.141732,4.996063 0,1.700787 -0.03543,3.366142 -0.141732,4.996063 l -15.838583,0 0,-9.992126 z m 21.826772,0 13.85433,0 c 0.212599,1.629921 0.318898,3.295276 0.318898,4.996063 0,1.700787 -0.106299,3.366142 -0.318898,4.996063 l -13.85433,0 C 69.944882,48.366142 70.015748,46.700787 70.015748,45 c 0,-1.700787 -0.07087,-3.366142 -0.177165,-4.996063 z m -62.2913389,15.980315 13.1811019,0 c 0.46063,3.543307 1.169292,6.874016 2.055119,10.027559 l -10.665355,0 C 10.169291,62.929134 8.6102362,59.562992 7.5472441,55.984252 z m 19.2401579,0 15.200787,0 0,10.027559 -12.968504,0 c -0.956693,-3.082677 -1.73622,-6.448819 -2.232283,-10.027559 z m 21.224409,0 15.200787,0 c -0.496063,3.57874 -1.27559,6.944882 -2.232283,10.027559 l -12.968504,0 0,-10.027559 z m 21.259843,0 13.181102,0 c -1.062992,3.57874 -2.622047,6.944882 -4.570866,10.027559 l -10.665355,0 c 0.885827,-3.153543 1.594489,-6.484252 2.055119,-10.027559 z M 16.830709,72 l 8.007874,0 c 0.566929,1.417323 1.169291,2.76378 1.842519,4.074803 0.885827,1.700788 1.877953,3.330709 2.940945,4.783465 C 24.767717,78.80315 20.444882,75.755906 16.830709,72 z m 14.527559,0 10.629921,0 0,11.515748 C 38.374016,82.275591 34.866142,78.838583 31.996063,73.311024 31.783465,72.885827 31.570866,72.46063 31.358268,72 z m 16.653543,0 10.629921,0 c -0.212598,0.46063 -0.425197,0.885827 -0.637795,1.311024 -2.870079,5.527559 -6.377953,8.964567 -9.992126,10.204724 l 0,-11.515748 z m 17.149606,0 8.007874,0 c -3.614173,3.755906 -7.937008,6.80315 -12.791338,8.858268 1.062992,-1.452756 2.055118,-3.082677 2.940945,-4.783465 C 63.992126,74.76378 64.594488,73.417323 65.161417,72 z"  fill-opacity="1" fill-rule="nonzero" stroke="none"/></g></g><</svg>