<svg xmlns="http://www.w3.org/2000/svg" data-name="Capa 1" viewBox="0 0 512 640" x="0px" y="0px"><defs></defs><title>8</title><path class="cls-1" d="M101.26,2.38c-0.39-3.17-5.62-3.17-6,0C82.18,107.73,15.36,129.43,15.36,202.65c0,45.24,37.95,81.91,82.89,81.91s82.9-36.67,82.9-81.91C181.15,129.43,114.33,107.73,101.26,2.38Zm315.5,0c-0.4-3.17-5.62-3.17-6,0-13.06,105.35-79.88,127.05-79.88,200.27,0,45.24,37.94,81.91,82.9,81.91s82.88-36.67,82.88-81.91C496.64,129.43,429.83,107.73,416.76,2.38ZM253,229.83c-13.07,105.35-79.89,127-79.89,200.26,0,45.24,37.94,81.91,82.89,81.91s82.89-36.67,82.89-81.91c0-73.22-66.81-94.91-79.88-200.26C258.61,226.65,253.4,226.65,253,229.83Z"/></svg>