<svg xmlns:dc="http://purl.org/dc/elements/1.1/" xmlns:cc="http://creativecommons.org/ns#" xmlns:rdf="http://www.w3.org/1999/02/22-rdf-syntax-ns#" xmlns:svg="http://www.w3.org/2000/svg" xmlns="http://www.w3.org/2000/svg" xmlns:sodipodi="http://sodipodi.sourceforge.net/DTD/sodipodi-0.dtd" xmlns:inkscape="http://www.inkscape.org/namespaces/inkscape" version="1.1" x="0px" y="0px" viewBox="0 0 379.08502 951.6177375" enable-background="new 0 0 2000 2000" xml:space="preserve"><path style="" d="M 181.66603,0 C 105.525,0 43.634,61.9495 43.634,138.1238 l 0,323.3221 C 15.628,494.04689 0,535.71129 0,579.59659 c 0,100.1789 81.486,181.6976 181.69603,181.6976 100.242,0 181.729,-81.4874 181.729,-181.6976 0,-43.8216 -15.567,-85.4569 -43.605,-118.12029 l 0,-6.595 59.265,0 0,-31.2569 -59.265,0 0,-37.2885 59.265,0 0,-31.2569 -59.265,0 0,-37.2579 59.265,0 0,-31.2569 -59.265,0 0,-37.2909 59.265,0 0,-31.257 -59.265,0 0,-37.2274 59.265,0 0,-31.257 -59.265,0 0,-11.4081 C 319.82003,61.9495 257.83903,0 181.66603,0 Z m 0,62.5139 c 41.821,0 75.64,33.8497 75.64,75.6099 l 0,349.3267 c 26.632,21.84839 43.605,54.98169 43.605,92.14609 0,65.8272 -53.42,119.1838 -119.215,119.1838 -65.79603,0 -119.18403,-53.3254 -119.18403,-119.1838 0,-37.1644 16.973,-70.36 43.635,-92.14609 l 0,-349.3267 c 0,-41.7602 33.82303,-75.6099 75.51903,-75.6099 z m -23.195,88.7366 0,360.89489 -19.161,15.721 c -15.56703,12.7529 -24.47303,31.6637 -24.47303,51.7302 0,36.8524 30.03703,66.8293 66.85903,66.8293 36.884,0 66.921,-29.9769 66.921,-66.8293 0,-20.0665 -8.908,-38.9155 -24.536,-51.6997 l -19.036,-15.7212 0,-360.92519 -0.07,0 -46.51,0 z m 50.545,402.18399 c 11.221,0 20.316,10.4408 20.316,23.225 0,12.8777 -9.095,23.2859 -20.316,23.2859 -11.284,0 -20.319,-10.4082 -20.319,-23.2859 0,-12.7842 9.035,-23.225 20.319,-23.225 z"/></svg>