<svg xmlns="http://www.w3.org/2000/svg" xmlns:xlink="http://www.w3.org/1999/xlink" version="1.0" x="0px" y="0px" viewBox="0 0 100 125" enable-background="new 0 0 100 100" xml:space="preserve"><polygon points="68.6775055,66.3665848 69.8409729,66.1179886 73.7530823,65.6728439 73.6690903,65.5061035 73.5027008,65.2166519   73.5111465,64.8178635 73.5111465,64.4239502 73.3542938,64.0075836 73.3762741,63.2385826 73.6342087,62.8204994   73.4369812,62.4715042 73.0702667,61.7815437 72.351944,59.5815926 71.5531998,56.8795052 69.213295,57.1017342   66.9595108,57.310791 67.101387,57.6651993 67.1010437,57.6797562 67.0187759,60.6541328 66.986702,64.3175812   67.3334198,67.7379227 69.0051498,67.8291168 69.0997086,67.5586853 69.1554718,67.1392975 68.6553268,66.6271286 "/><polygon points="63.351963,55.8708 63.6723938,55.6198654 63.8240242,55.3148193 63.8271141,55.2180595 62.5863953,55.2997475   62.7387123,54.9475899 63.0923119,54.4694862 62.9671211,54.2718124 60.907814,54.2550888 58.9744568,54.3442955   56.9429626,54.4085388 54.7908096,54.4240265 55.1843071,56.7549324 55.1823158,58.971981 55.1614571,60.946373   55.2281914,61.0415878 55.5574112,61.0085564 56.0068779,61.008213 56.0818672,61.008213 55.998703,62.3044777   57.7807083,62.2612267 59.8758621,62.1049232 61.4486847,62.1027946 61.5049286,61.7289391 61.2549553,61.146244   61.2708206,60.5738525 61.6479073,59.7433891 61.8254242,59.253952 62.1630936,58.9046135 62.3542786,58.7753029   62.5569839,58.1860237 62.5428543,57.8271294 62.8735161,57.632576 62.8818436,57.5694122 62.7963982,57.5753746   62.8959236,57.4628029 62.9006424,57.4271088 62.929245,57.4251099 63.0894966,57.2438889 63.0243225,56.5842819   63.304924,56.2596626 "/><polygon points="25.837368,51.2747726 22.3814888,50.6767311 19.5521832,50.1682777 19.2114258,51.9279556 19.1065617,51.9933357   18.8904133,52.3554497 18.601162,52.1803665 18.2935047,51.9563179 17.9725266,51.890255 17.8379612,52.0746078   17.9315624,52.3973732 17.8276596,52.8940201 17.7769794,53.3242226 17.7759495,53.7918549 17.5720234,54.2067642   17.5683842,54.3939514 17.6059475,54.7122116 17.6757889,55.1259689 17.8248444,55.584877 18.1176338,56.1425056   17.4223843,56.5066109 17.066761,57.4890518 16.6064091,57.9161301 16.6202812,58.2982292 16.6175003,58.627655   16.9028378,59.0279503 16.544157,59.5097618 16.2957649,59.4551659 16.0990162,59.7484703 18.6940765,61.380146   22.791399,63.7497177 26.5593472,64.3248596 28.3841667,51.6802025 "/><polygon points="16.2323799,59.2972183 16.4855785,59.3529129 16.7288189,59.026165 16.4764442,58.6721535 16.4796715,58.3001518   16.4634991,57.8567963 16.9461002,57.4091148 17.3087311,56.4073105 17.9276829,56.0831718 17.6929226,55.6340141   17.537962,55.1545029 17.4667816,54.7321625 17.4276047,54.4008827 17.4312611,54.2112541 15.0116091,50.7429657   12.5221691,47.0574417 10.0053959,43.208065 11.7783689,36.6579742 5.0454345,34.6533318 4.5201182,36.4769173   3.5955358,38.1307068 4.1008334,39.5858231 3.7747042,41.4279175 4.5221443,43.633461 5.0790501,44.6082802 4.8604975,45.1081848   5.418674,48.544735 6.5286398,51.2487106 6.4151917,52.5027199 6.7530985,52.9489899 8.1523504,53.5084724 8.7659121,54.4117661   9.4802513,54.682785 11.1446514,56.5207558 11.6681137,57.8831673 11.7004242,58.7092361 13.8266172,59.0227318   16.2293415,59.3017349 "/><polygon points="34.1651001,52.2811432 37.2505226,52.5909653 39.4263306,52.7764511 40.7304878,52.875843 41.1054802,52.9044189   41.3244629,49.6426811 41.5440788,46.0722542 41.6908684,43.9358292 38.3960114,43.6797943 38.3959236,43.6809158   38.3261337,43.674366 38.2557945,43.6688957 38.2558823,43.6677666 36.6049232,43.5127678 33.1698875,43.1334877   31.4552879,42.9146576 29.8115063,42.6873932 28.5433006,51.5614738 31.3031082,51.9361992 "/><polygon points="91.30439,36.9023476 90.1006165,37.1714439 90.4168549,38.7928886 90.6344147,38.9810867 90.3077393,39.3056717   90.3752441,39.4406509 91.4937897,38.6281433 92.4307709,38.2649956 93.0897446,37.9759216 93.1007462,37.6820297   92.7810745,36.5593605 "/><polygon points="87.9365005,43.6841507 87.9235382,43.6894302 87.8994675,43.6190567 87.8994293,43.6190071 87.7455368,43.1691284   87.8965302,42.9508057 87.6572189,42.9325485 87.557579,43.0344925 87.4816437,43.2047043 88.2236404,45.9142036   89.2165146,45.6861649 88.5389175,44.7426033 "/><polygon points="19.1525726,28.2084141 19.2150669,28.5842628 19.1118851,28.9668407 19.3628845,29.4500275 19.5952759,29.7045994   19.6021767,30.1166725 19.3617172,30.3881721 19.0194168,30.9095745 18.6215229,31.5857658 18.1728115,31.9485321   17.843626,32.3826523 17.7694588,32.6810684 18.0188122,32.8896637 18.0890312,33.2581673 17.7932892,33.871212   16.8488598,37.7788582 19.8557358,38.4454536 21.7465172,38.8646011 26.666563,39.7504997 27.5857029,34.2584419   27.5622864,34.2351723 27.5219574,34.1956253 27.5221462,34.1952972 27.3932972,34.0673103 27.2930355,33.734417   27.207983,33.6869278 26.9173584,34.0734901 26.488493,34.0824852 25.656723,33.79739 25.5732841,34.0114784 25.0312119,33.8215942   24.6236362,34.1163406 24.4222851,33.3804398 24.2999783,33.0522842 23.9844246,32.9336853 23.9038715,32.7081947   23.9167137,32.1106339 23.691637,31.7770214 23.6500549,31.0217857 23.5352325,30.7099419 23.4316063,30.6517067   23.235405,30.8995132 22.8064041,31.1381531 22.5121384,30.7888126 22.6263084,30.1429405 22.8309193,30.0396214   22.819418,29.4620438 22.819418,29.4620094 23.0996723,28.8860474 23.3276348,28.498455 22.9333115,28.398365 22.5800571,27.960537   22.2951317,27.1628284 22.1213875,26.7774696 21.8151741,26.4882851 21.5942173,26.0332909 21.6852093,25.6249256   21.4190311,24.940527 21.8203754,22.5923729 20.4929047,22.2897053 19.8396835,25.0926037 "/><polygon points="65.999115,40.8094101 65.9390259,40.2740326 64.705307,40.360939 62.9489212,40.4903221 61.3495216,40.5930595   61.374054,40.6309967 61.3824158,40.6438751 61.5959206,40.7516556 61.6922684,40.9950676 61.9619484,41.1586838   62.1729813,41.3674164 62.116806,42.0314522 61.8272133,42.5788116 61.7086143,42.772953 61.2956123,42.9391747   60.7522697,43.0752182 60.6480217,43.389534 60.8496475,43.5394135 60.9550629,43.9370308 60.7425842,44.3608818   60.6423912,44.7262955 60.2232094,45.0813675 60.2114677,45.4290352 60.2183342,45.4339714 60.2100067,45.4726524   60.2057686,45.5981712 60.186039,45.5839119 60.0889549,46.0346909 60.2705956,46.6786423 60.575573,47.1166725   60.9225769,47.4754219 61.3396301,47.7541313 61.5249786,47.8575554 61.7113609,48.3207893 61.7570267,48.65839   61.8969154,48.7144928 62.2398682,48.5387955 62.6644058,48.9432793 62.5791855,49.4210396 62.4372368,49.7561989   62.3559265,50.1221581 62.6036301,50.4151535 62.9543457,50.6919746 63.1621513,50.6868935 63.6765137,51.1614952   63.8830833,51.221447 64.0728302,51.8114548 64.0313492,52.1507339 64.2660751,52.6157188 64.4395447,52.5494156   64.6351776,52.7332458 64.6014709,52.6149635 64.7415009,52.3125954 65.3003616,52.4106979 65.7148743,52.5695724   65.8757782,52.4202766 65.7618484,51.9195099 66.200325,51.6689224 66.4318924,51.5216522 66.2810135,51.3462257   66.4689789,50.9915962 66.4537811,50.8975334 66.4425354,50.8957291 66.4447708,50.8416786 66.4301758,50.7513084   66.4481812,50.7542 66.4649963,50.3517685 66.6688843,49.7048302 66.9880753,49.1865883 67.0839462,48.7929192   67.2128448,48.6498032 67.2000351,48.3891335 67.1997299,48.3827324 67.0791397,48.0302696 66.9024429,47.8623619   67.0500183,47.1852455 66.5655975,41.9593048 "/><polygon points="71.4350128,43.5613213 71.1744003,41.4095459 69.6506805,41.6004944 67.8399658,41.7834396 67.4071884,42.0780449   66.7837753,42.1517677 66.7199783,42.099987 67.1920395,47.1939659 67.0566788,47.8149757 67.2009659,47.9520493   67.3397522,48.3658752 67.3562317,48.7008286 67.2122269,48.8606987 67.113678,49.2509003 66.793251,49.7710686   66.602066,50.3846283 66.5877151,50.7765694 66.6811752,50.7915535 66.6769867,50.5294609 67.2119522,50.6786194   67.5811386,50.3892632 68.1432953,50.6694183 68.2349777,50.4819717 68.6777115,50.191349 69.0691528,50.4066048   69.2062912,50.1896667 69.5302963,49.5956764 69.7210693,49.9528465 70.0185623,50.0724754 70.3205872,49.3922653   70.5657501,49.2927933 70.7502747,48.888546 70.9671402,48.7056694 70.9527893,48.2231712 71.4284897,48.258812   71.6752319,48.0317802 71.9496536,47.9946594 71.9835739,47.8862953 71.7781067,47.4299622 71.8732224,47.2997894 "/><polygon points="64.8753967,68.4673462 64.8254852,68.2564011 64.7339478,67.9044495 64.4613113,67.6621704 64.2972488,67.3452454   64.4080887,66.9410324 64.4313049,66.6440887 62.6531448,66.7524567 60.8471756,66.7733994 60.7226715,66.1145477   60.9619293,65.8331985 61.1082726,65.2877274 61.2653961,64.7808456 61.6196136,64.4087753 61.6860199,63.9708481   61.9163513,63.7477264 61.6615028,63.3922043 61.7259865,63.1040535 61.4157219,62.6418114 61.567421,62.3152008   61.4833488,62.2434082 59.8811493,62.2453613 57.7876434,62.4016609 55.998909,62.4452019 56.1630402,64.7829056   56.4810638,65.0275192 56.6052284,65.3989792 56.7843971,65.9215775 57.0220757,66.4306564 57.2176552,66.7587738   57.0383492,67.6456223 56.9204369,67.8920898 56.7740936,68.3993835 56.9143944,68.5397491 56.9211922,69.0552063   56.6155281,69.3807907 56.4440498,69.680687 56.5764542,69.9108124 58.2878609,69.9303131 59.8395309,70.1743088   61.0180359,70.5941086 62.7413216,70.9700241 65.3954773,70.7096176 64.7102509,69.4482269 "/><polygon points="95.5634384,35.6155815 95.9006271,36.2396851 95.0733185,36.4094124 94.1640854,35.3589172 93.8599319,34.2312508   93.7370758,34.2391624 93.4675293,34.4584045 93.3536682,34.7381439 91.4717331,35.2300415 91.4745636,35.232933   91.3531647,35.2610321 91.3149643,35.2710152 91.3140564,35.2700844 90.0558777,35.5612564 90.0869675,37.0303688   91.2731476,36.7652054 92.8119583,36.4077911 93.5496674,36.1763 93.848877,36.7512665 94.1804276,36.9321861   94.3062897,37.2228699 95.0400772,37.0570679 96.000267,36.4111977 95.9543991,35.8271637 "/><polygon points="81.429657,45.3473396 81.6865616,45.0252647 82.0107651,44.873085 82.2069702,44.5809135 82.7375336,44.5718117   82.8856659,44.3835449 83.1480484,44.1784019 82.6742859,44.2750778 81.1390839,44.5625076 81.2970505,45.4915886 "/><polygon points="89.3954773,45.9164352 89.308403,45.8093414 88.1236496,46.0814934 87.3571167,43.2823715 85.9128494,43.6076736   84.439743,43.9079132 83.3112488,44.1445808 83.8294449,44.2085648 84.1278305,44.5089417 84.302536,44.7406807   84.5532608,44.7621422 84.8247375,44.8860245 84.8837128,44.9126053 84.8674393,44.9678688 84.8117447,45.1595879   85.1464615,45.2122269 85.4732056,45.3694534 85.5973663,45.2263718 85.9796677,45.4865074 85.7669907,45.771244   85.7741318,45.9622765 85.51577,46.2390366 85.5146866,46.2401962 85.4687042,46.4993858 85.4340973,46.694725   85.6015549,46.7416153 85.9017944,46.5642319 86.093071,46.8955803 87.1418304,47.2768555 86.7228546,45.4725647   86.837883,44.615181 86.975502,44.6062889 87.412674,46.2333298 88.458725,47.0303268 88.5199509,46.9221344 88.536171,46.89328   88.536293,46.8932419 88.5363083,46.8932114 88.5638962,46.8844299 88.9348221,46.7660637 "/><polygon points="98.1330414,27.462141 96.7286148,26.5556202 95.7750244,23.5778103 94.9755936,23.1887417 94.0842819,23.8773613   93.445076,23.4721546 92.8246078,25.3820629 92.8597031,27.2305412 92.5948334,28.417284 92.077858,28.9663601   93.4011917,32.8846855 93.402153,33.0909805 93.7725067,33.3216553 93.9117813,33.5673332 93.9885559,33.5343513   94.3965454,32.3223877 95.8216476,30.4458923 97.181778,29.4600868 98.4344482,28.3135185 "/><polygon points="61.4653702,31.1621552 61.6196136,31.5658855 63.0096283,31.8731632 63.9455757,32.2081871 64.3810349,32.1752243   64.7504959,32.1784859 64.8749313,32.5591393 65.25737,32.6682625 65.4585876,33.0316811 65.4583435,33.0322495   65.4585876,33.0326767 65.3680725,33.2472115 65.3376846,33.5326157 65.7038193,33.5202217 65.703598,33.5212288   65.7038193,33.5212173 65.6071091,33.9505539 65.7839584,34.1348495 66.5688248,32.6278496 67.6558533,32.3040886   68.8583221,31.7043648 70.1975937,31.799099 71.4321976,31.4511318 70.5763931,30.6920509 70.707695,30.4981518   70.3588333,30.4961948 70.2896805,30.735178 69.7064362,30.6971684 69.3073807,30.1103554 67.8413391,30.4739799   66.4662323,31.1430969 65.2503662,30.3628998 64.2723236,30.1347332 64.6312103,28.9999771 63.4843674,29.7647915   62.2817612,30.6016769 61.3391495,31.1325912 "/><polygon points="69.9676743,32.2909355 69.8555984,33.1353455 69.529541,33.4091797 69.3806534,34.5377541 69.2439957,34.5500145   69.0415421,33.9180489 68.5486755,34.4396553 68.2342224,35.2317657 67.9308929,36.3788528 67.9493637,37.3246536   68.6476364,38.6680069 68.7655487,40.2019615 68.1787338,41.4119492 67.9878922,41.6261406 69.6349487,41.4597473   71.2956772,41.2516327 71.3186111,41.4267502 72.1126862,41.3106575 72.8841553,41.2091904 73.4806519,41.108345   73.9179688,40.1940651 74.1742554,39.3484573 74.7642975,38.0143394 74.5494843,37.1297951 74.0742645,35.9033928   73.5177383,35.7824593 72.6499863,36.909626 72.2325897,36.9414215 72.0465469,36.2939377 72.8270187,35.2553902   72.8299789,34.2349052 72.564415,33.2614632 71.2957458,32.5568733 "/><polygon points="50.4060211,26.0901527 50.5463219,26.4296379 50.5313492,26.7239723 50.4766197,27.011301 50.4904213,27.4559956   50.5108871,27.8619232 50.680851,28.275095 50.8688812,28.7664871 50.9420853,29.2339458 50.9706535,29.5136185   50.9740181,29.8299961 51.0310173,30.4889851 51.0839653,30.6173344 51.0992775,31.1493816 51.1707687,31.6061954   51.299118,31.9733238 51.4004097,32.3362617 51.3978539,32.6908722 51.4041176,32.6907196 51.3973045,32.7661018   51.3968391,32.8315659 51.3913803,32.8316994 51.3640137,33.1348305 50.9964752,33.3931084 50.9211388,33.6547546   51.0588303,33.9672165 51.3510361,34.1550407 51.5395432,36.3814964 51.5078163,38.4519272 53.2532158,38.4538841   55.5092697,38.3907051 57.9343987,38.303421 60.0294647,38.2484665 59.9894447,38.0659485 59.9568939,37.5266914   59.9056664,37.3761597 59.3435745,37.0706673 58.9011116,36.6887398 58.7757149,36.4498596 58.6013527,36.3159142   58.0769653,36.0231934 57.8738289,36.0096283 57.3368721,35.5492439 57.3712082,35.0096436 57.349781,34.3881493   57.4476433,33.8335457 57.0859413,33.4060555 57.328289,32.9192276 58.077446,32.3960075 58.0093193,31.130188   58.4219093,30.9842911 58.4124336,30.6682224 59.4531746,29.6265163 60.5247536,28.63381 61.9022026,27.8584213   60.1566658,27.427702 58.9187622,27.7956524 57.378212,27.1364594 55.8073807,26.8199081 54.7199402,26.7002449   54.2022133,26.2879658 53.9226418,25.0526714 53.5365601,25.0662689 53.5415764,25.958746 50.3943138,25.9497147 "/><polygon points="21.8317585,25.6138 21.7421398,26.0159855 21.9304771,26.4036808 22.2382011,26.6943054 22.4254723,27.1102943   22.7044926,27.8907661 23.0133171,28.2735844 23.5439205,28.4082184 23.223526,28.9524899 22.9606781,29.4930859   22.97328,30.1253262 22.7525291,30.2367477 22.6620522,30.7485008 22.8392982,30.9589157 23.1425591,30.7902546   23.3958263,30.4702721 23.6492996,30.6126995 23.7899075,31.0035191 23.8299446,31.7305298 24.0583172,32.0690193   24.045063,32.6853294 24.0949211,32.8249741 24.4094105,32.943161 24.5560265,33.3373451 24.7056656,33.8834343   25.0083447,33.6645393 25.4915638,33.8338203 25.5746574,33.6205559 26.5104694,33.9413605 26.8460064,33.934288   27.1693192,33.5042572 27.4112911,33.63937 27.5176659,33.9926605 27.5891018,34.0633049 27.7793446,32.8806686   31.0082245,33.368557 33.5067978,33.7346916 36.4087257,34.0644264 39.0313568,34.3459282 39.2646942,32.5368423   39.2910805,32.3321686 39.4575119,29.5466156 39.8049965,25.3951797 35.3461456,24.9258995 30.8345852,24.3006306   26.3460999,23.5278149 21.9579792,22.6221867 21.5642071,24.9258308 "/><polygon points="86.9481735,50.7733536 85.0475693,51.1857376 81.4481964,51.8562965 78.7458878,52.2227364 78.4346771,52.2650414   78.4339218,52.4858589 78.5148849,52.8526421 78.129425,53.0214424 77.8997116,53.4580307 77.5614929,53.4622574   76.9205704,54.014698 76.7439423,53.8390312 76.4070969,54.1409531 76.4413681,54.3077621 76.0902405,54.5578003   75.935791,54.7838745 75.5180511,55.0518036 75.098732,55.215313 74.7498703,55.3206558 74.5438538,55.6026649   74.4425583,55.8778725 74.0840149,56.0633926 74.0998154,56.4256096 75.3932724,56.2597351 76.3264771,56.1400337   76.4907379,56.0527496 77.4435806,55.5134583 79.172226,55.2641411 80.1117477,55.2245827 80.1411362,55.3465118   80.2613831,55.212841 80.6846161,55.6108704 80.7168961,55.8272591 82.735199,55.4961166 85.2059326,57.2199211   85.7913666,56.9786034 87.1507568,55.5334091 88.7599792,54.2998962 89.5359192,52.4330482 88.8091507,50.3537598 "/><polygon points="39.4355011,32.2736664 42.4140663,32.4962349 45.6878929,32.6696701 48.2850494,32.7679062 51.2571602,32.694355   51.2596321,32.355011 51.1649971,32.015419 51.0328026,31.6342487 50.9587746,31.157896 50.9441452,30.6471386   50.8918152,30.5118523 50.8336487,29.8367252 50.8303528,29.5214119 50.8026085,29.2519379 50.7310524,28.7957077   50.5502357,28.3271847 50.3716164,27.8931007 50.3499146,27.461729 50.3355637,27.0001755 50.3922882,26.7024784   50.4043045,26.4542923 50.2668228,26.1127453 50.2529488,25.9474144 45.1381302,25.7779293 39.9450912,25.4075394   39.5977745,29.5566769 "/><polygon points="51.427948,41.0793648 51.3684769,40.8971405 51.1110916,40.866993 50.9357681,40.7330818 50.8641396,40.5517159   50.4192085,40.3615913 50.0075798,40.0756721 49.4305191,40.0882378 49.0504112,40.0730972 48.8948669,40.1807404   48.2298355,39.9640427 47.821434,39.6760941 44.4866257,39.5444489 41.9773026,39.3959084 38.7852325,39.1474838   38.4920158,42.5618515 38.4080467,43.5396538 41.8407135,43.8063812 41.6852722,46.0832596 44.6709442,46.2526588   46.9429665,46.3439255 50.9663277,46.4250984 53.2631035,46.4250984 53.0849648,46.0510025 52.8206444,45.769062   52.5122299,45.3924599 52.474308,45.1901894 52.355999,44.767498 52.4049644,44.3539124 52.3680878,43.9750786   52.1933136,43.3281403 52.0905762,43.0818443 51.9537811,42.9995384 51.9410744,42.4430809 51.840538,42.0862885   51.5259438,41.6467438 51.5313034,41.4452209 "/><polygon points="91.7520065,30.6613884 91.7671814,30.9997082 91.4516296,31.3874722 91.2061234,31.5555496 91.2101746,31.7413445   91.269989,32.1102219 91.216423,32.7098427 91.1397095,32.9303551 91.0836029,33.4006767 91.1676636,33.935215   91.1547546,34.0854034 91.2696457,34.6769562 91.2211609,34.9742432 91.3583679,35.1142998 93.2499771,34.6198883   93.3507843,34.3720131 93.6832352,34.1016808 93.8561554,34.0905533 93.9452896,33.7060242 93.9345627,33.7106323   93.8516235,33.7462959 93.8516006,33.7462692 93.8515549,33.7462959 93.6678543,33.422123 93.2617874,33.1692696   93.2606888,32.9081039 91.9554443,29.0435333 91.5690613,29.2090874 91.5648651,29.6986961 91.5659027,29.6990356   91.567482,29.7523956 91.5500336,30.3797607 "/><polygon points="89.5301514,40.9975739 89.850441,39.7515373 89.6534653,39.6773224 88.4534225,39.2251854 88.3207397,39.3328323   88.1471405,39.8913193 87.9478455,40.1220589 88.0976257,40.376873 87.9590378,40.7061272 88.0195389,40.9939346   88.2118301,41.0190353 88.302887,41.2652626 89.0067215,41.7358818 88.8056488,42.0973091 88.4756012,42.4797516   88.3835144,42.6496468 88.0777435,42.9361496 87.9015579,43.1907578 88.0084152,43.5030518 88.1253662,43.4554253   88.6867065,43.9529648 89.1087036,43.9801254 89.3214493,44.4161301 90.0958099,42.5709152 90.0013809,40.9901581 "/><polygon points="31.4327621,63.4426804 33.2546997,63.6480141 36.7487259,63.9890442 38.4809418,64.1316071 39.2657585,53.9696312   39.2872696,53.6821632 39.3450241,52.9106789 37.2375107,52.7310219 34.1496506,52.420929 31.2852192,52.0756721   28.5234032,51.7007294 28.52318,51.7023315 28.523077,51.7023201 26.6985645,64.3449783 28.1224022,64.5398026   28.2737236,63.607563 31.5600491,64.0207062 31.4298439,63.7327576 "/><polygon points="19.4404526,50.0053101 19.4408989,50.005394 19.4487438,49.9662933 21.6498775,38.9872322 16.8101273,37.9143524   16.8095951,37.9158287 16.807518,37.9220085 16.7448196,37.906292 16.744545,37.9062462 14.4470978,37.3302269   11.9140158,36.6951561 10.1576452,43.1838913 12.6392908,46.9796028 15.1275644,50.663372 17.4914875,54.051754   17.6353741,53.7590256 17.6368179,53.3117599 17.6889744,52.871357 17.7867298,52.4029007 17.6836529,52.0474815   17.9122314,51.73423 18.3517056,51.824707 18.6790371,52.0633812 18.8421707,52.1619263 19.0032787,51.8919716   19.0849991,51.8410187 19.4137211,50.1433907 19.4132576,50.1433105 19.4271126,50.074234 "/><polygon points="90.3836899,39.6085205 90.3237381,39.6522331 90.136467,39.2775841 90.4277115,38.9882317 90.2881622,38.867466   89.9632874,37.2021294 89.9500198,37.2050934 89.9483337,37.1254501 89.936348,37.0640373 89.9469452,37.0616684   89.9141693,35.5138779 89.532692,33.7460213 89.3195953,33.7842712 89.2295685,33.6501884 89.2508545,33.2994385   88.9564514,32.7568169 89.0005417,32.258419 88.8318787,31.9485664 88.6229782,31.2813721 88.6141129,30.9846344   88.5460587,30.6065197 86.244133,31.1875286 85.6439972,31.7478352 84.3693542,33.5919533 84.6024323,33.8672981   84.9091263,34.7693558 83.7986069,35.8188896 82.3980865,35.9138641 81.1157455,36.0842094 80.3900757,36.4884529   80.7082443,37.0427856 80.7102356,37.0555229 80.792572,37.2931671 79.611908,38.8985214 79.7041702,39.4069633   82.2387619,38.9265938 84.6622467,38.4242516 86.9428864,37.9198112 87.4082794,38.19907 87.6852417,38.3738441   87.6991806,38.6470261 87.8587112,38.9050674 88.151947,38.9850349 88.4250259,39.0670853 88.4274597,39.0651093   88.462883,39.0784531 88.5879517,39.1160316 88.5799179,39.122551 89.9743805,39.6479492 90.0004196,39.6577606   90.0004196,39.6577644 90.0180054,39.6643867 90.0052795,39.7138519 90.063324,40.3826752 91.0437088,40.1318474   93.0890732,38.9284515 92.6323929,38.7141533 "/><polygon points="73.5222015,41.2439766 72.9051056,41.3492508 72.1320496,41.4509926 71.3361588,41.567318 71.5746994,43.5447006   72.0085754,47.2462883 72.5712814,47.2249718 72.9393692,47.4196243 73.4634171,47.858242 73.8562317,47.9681549   74.1285858,48.1016197 74.5334167,47.9833984 74.856041,48.0679359 75.2066879,47.8970757 75.585556,47.796608   75.7886276,48.1176224 76.1082306,48.2654381 76.4844894,48.1575546 76.6434021,47.8555984 76.5958099,47.3592606   76.7900848,46.767334 77.1414871,46.7931519 77.1885986,46.9831734 77.2218399,46.956768 77.239212,46.7590904   77.2463531,46.3254204 77.6105957,45.8275375 77.8503342,45.8451538 78.0512009,45.7546082 78.2189026,45.6244736   78.5873337,45.0623474 78.577858,44.8418007 78.6654205,44.3219109 78.7426071,43.7157326 78.734848,43.2044258   78.5958557,42.891758 78.8245163,42.7315407 78.3359604,39.8665047 77.6167068,40.2634583 76.7168808,41.0504875   75.5149612,41.550705 74.6293488,41.5610046 "/><polygon points="78.969368,42.7445831 79.3136902,44.7454872 81.0457687,44.4369049 82.6473007,44.137043 83.1918106,44.0258942   84.4113083,43.7701912 85.8833923,43.4701576 87.3573227,43.1381378 87.4394608,42.954216 87.602562,42.7873039   87.9986649,42.8175201 88.270752,42.5625725 88.3641434,42.3936348 88.694397,42.0109863 88.821167,41.781002   88.1868286,41.3568039 88.1093674,41.147522 87.9023895,41.1205025 87.812355,40.6920471 87.9406357,40.38731   87.7754745,40.1064034 88.0215988,39.8215446 88.1990509,39.2504234 88.2929306,39.1742668 88.1132126,39.1202202   87.7681961,39.0261383 87.5606003,38.6902924 87.5484467,38.4538498 87.3345261,38.3188362 86.9185715,38.0692444   84.6917038,38.5617676 82.2661667,39.0645256 79.5911331,39.5715752 79.5417938,39.2997932 79.4888763,39.0082817   78.4651642,39.7872772 78.922821,42.4715652 "/><polygon points="93.7439423,36.8542061 93.4793396,36.3457832 92.9167709,36.522316 93.2420731,37.6649971 93.233696,37.8898697   94.1767197,37.2777176 94.070549,37.0324478 "/><polygon points="80.7438812,61.2110748 81.0218735,61.6324539 81.0845718,62.0334358 81.228302,62.074295 81.5419006,62.1292686   83.3134308,60.6635399 84.696579,58.9835167 85.1170654,57.3294106 82.7015533,55.6441765 80.5987778,55.9891243   80.5527649,55.6798859 80.2697601,55.4137802 80.0669708,55.639267 80.0021439,55.3699646 79.1817017,55.4045067   77.4898682,55.64888 76.5583878,56.1760178 76.3936386,56.2636452 76.2299194,56.4634171 76.0264435,56.8652916   76.5158081,57.132431 76.8770294,57.2272682 77.3442841,57.9120789 77.6165009,58.2651978 78.3550873,58.7029877   78.5276566,58.9637413 79.0335083,59.2624016 79.3375931,59.7635078 80.0210266,60.1249352 80.2472382,60.6353149   80.4139786,60.8870735 80.3804626,61.0381546 "/><polygon points="51.2298279,33.0572281 51.2498627,32.8352089 48.2840843,32.9084816 45.6815414,32.8101768 42.4051056,32.63657   39.4223824,32.4137268 39.3172455,33.2288284 39.1622314,34.4307709 38.8719864,38.0658455 38.7968407,39.0072861   41.9869194,39.2556076 44.4935608,39.4040108 47.8685455,39.5371704 48.3020782,39.8429031 48.8717918,40.0256767   49.0090714,39.9306679 49.4318237,39.9476624 50.050293,39.9340668 50.4934425,40.2419281 50.9733315,40.4452019   51.0522385,40.6450424 51.1657524,40.7317772 51.3521347,40.7536011 51.3535767,40.6538315 51.0713959,40.3883743   51.2235756,39.9753036 51.3118896,39.6140137 51.3473282,39.3996506 51.1390419,39.1006813 51.1461143,38.4518585   51.367157,38.4518585 51.3991737,36.3863373 51.2167091,34.2359352 50.9471664,34.0626717 50.771843,33.6648483   50.875061,33.3065109 "/><polygon points="88.7632751,31.2673626 88.9638672,31.8994999 89.1443405,32.2282028 89.1002502,32.7270126 89.393692,33.2677803   89.372818,33.611248 89.3851089,33.6296196 89.6414642,33.5836105 90.0380554,35.421032 91.1987686,35.1523819 91.0709,35.0218315   91.1268005,34.6790848 91.0128708,34.0929565 91.026062,33.9401588 90.9415894,33.4033394 91.0043564,32.891346   91.080719,32.671936 91.1283798,32.1155815 91.069664,31.7493114 91.0638275,31.4825497 91.3635864,31.2772846   91.6243362,30.9529419 91.6134186,30.7093925 91.4081573,30.4232292 91.4242783,29.8408165 88.6826477,30.5711861   88.7545547,30.9752254 "/><polygon points="9.1509285,25.5481491 9.4651775,25.8685093 9.8843594,26.1400089 10.0535021,26.686615 9.9807081,27.0753307   9.9989061,27.3709774 10.2895317,27.5382996 10.6499634,27.6388378 11.3083344,27.5822506 11.697403,27.6149044   12.2496042,27.8838291 12.4414778,28.0519428 12.7543535,28.0637188 13.1663923,27.9815521 13.1664095,27.9815559   13.1664267,27.9815521 13.858654,28.2039165 14.4789448,28.1174908 14.8520813,28.0116653 15.2259731,28.2158985   15.8321524,28.130024 18.9867954,28.8905792 19.0713329,28.5771904 19.0093899,28.2046719 19.7025089,25.0614948   20.3561592,22.2567673 16.0371075,21.1602001 11.7858543,19.9256611 11.9218616,21.8686695 11.6124878,23.7849274   10.9411383,24.3649769 10.7985725,22.3352699 8.9832973,21.350872 8.568202,23.4424191 8.4034548,25.3278103 8.6746111,25.3862514   "/><polygon points="57.9298668,35.8724213 58.1178932,35.8849525 58.6830063,36.2012634 58.8858681,36.357151 59.0131874,36.5997391   59.4296913,36.9592094 60.0210342,37.2786446 60.096714,37.5087662 60.1294708,38.0518341 60.2122917,38.4110641   60.4693336,38.7928543 60.3151627,38.9925575 60.3437996,39.433506 60.4189987,39.6228065 60.5357437,39.9490051   61.0903473,40.134594 61.2657394,40.4574928 62.9392395,40.3500214 64.6952133,40.2206764 65.9148483,40.1347313   65.9139557,40.1291695 65.9304428,40.1279526 65.925293,39.6458092 65.6146774,38.5458031 65.6168747,38.5308304   65.8145218,37.2156677 66.0407257,35.5817947 66.6719742,33.8561745 66.5769958,33.8687744 65.4953232,35.494442   65.1507263,35.142765 65.7113724,34.2633018 65.4530945,33.9942398 65.4532776,33.9934082 65.4530945,33.9932098   65.5264206,33.667984 65.1805954,33.6796837 65.1807022,33.6786842 65.1805954,33.678688 65.2345047,33.2010994   65.3021851,33.0405579 65.1626053,32.7885094 64.7634735,32.6749229 64.6472092,32.3191948 64.3846741,32.3166542   63.9451294,32.3492508 63.9263458,32.3506813 63.9015045,32.3417931 62.9654007,32.0070763 61.5152969,31.6879177   61.3605766,31.2829514 61.1599808,31.2353783 61.1564293,31.2373562 61.0581398,31.2938347 61.0064278,31.255928   60.0384102,30.5554256 58.5655212,31.0812912 58.5655746,31.0826988 58.1554565,31.2277031 58.2258492,32.535347   58.1235924,32.535347 57.4381638,33.0139999 57.2530899,33.3858643 57.5976257,33.793026 57.4908371,34.3981094   57.5116463,35.0117378 57.481636,35.4881248 "/><polygon points="76.1910477,48.3880272 76.2375412,48.5414391 76.285408,48.9888802 76.5474625,49.3102684 76.6782227,49.6223221   76.9772263,49.8711586 77.176033,50.0916328 77.4641647,50.081871 77.5226288,50.0076828 77.5495834,50.0789986   77.6500854,50.0755997 77.5810852,50.1623764 77.6987762,50.4737663 77.9098053,50.6286926 78.1687698,50.7465706   78.6930237,50.3833237 78.9416199,50.5091324 79.5082245,50.2436523 79.5141525,49.997242 79.5151138,49.997448   79.5151825,49.9945984 79.775383,50.0490913 79.9615555,49.8551903 80.219841,49.8440323 80.4295349,49.6599884 80.4319,49.4924583   80.361084,49.2497482 80.3525848,49.2218513 80.3527908,49.2213402 80.3527908,49.2213364 80.353714,49.2190628 80.5454178,48.75   80.8222427,48.4139099 80.8497086,48.075901 81.0816193,47.6211472 81.1748734,47.02005 81.5255203,47.1927643   81.7799377,47.2895164 81.9598846,47.1881294 82.0027313,46.9886322 82.2845001,46.2534828 82.4403229,46.328167   82.616188,46.0373344 82.9011154,45.679203 83.0590668,45.4371986 83.0817947,44.7333336 84.1060562,45.1683426   84.1891022,44.8239479 84.1281738,44.7430916 84.0184326,44.597496 83.7640686,44.342205 83.2483292,44.2785454   82.9792709,44.4888916 82.8075867,44.7112885 82.2827835,44.7202492 82.1058121,44.9838524 81.7759705,45.1386414   81.5363693,45.4388123 81.206398,45.7978706 81.0006561,44.5877876 79.1991501,44.9087944 78.8508377,42.8848534   78.7713776,42.9404449 78.8750763,43.1735229 78.8833847,43.7235603 78.8833847,43.7235641 78.8833847,43.7235947   78.8045502,44.3424797 78.7190552,44.8505936 78.7297668,45.1015587 78.3237,45.7211647 78.1166534,45.8793869   77.8756104,45.9879951 77.6780319,45.9735374 77.3861694,46.3724594 77.3795776,46.7664413 77.3566437,47.0292168   77.1048203,47.2295723 77.0295486,46.9259682 76.889389,46.9156685 76.7386551,47.3751259 76.7873383,47.8839607   76.5810471,48.2762222 "/><polygon points="26.7817974,39.9141502 26.7815571,39.9141083 26.4321461,41.9609604 29.7626286,42.5386429 31.4737949,42.775219   33.1865082,42.9938049 36.6192093,43.3728485 38.2679176,43.5276375 38.3564529,42.4965744 38.6511497,39.0647888   39.0167465,34.4858322 36.3932724,34.2042084 33.4886703,33.8741302 30.9875202,33.5076561 27.8960896,33.0405388   27.7205257,34.1320686 27.6981564,34.1711082 27.7365608,34.2090836 26.8050079,39.7754326 26.8052139,39.7754669   26.7946568,39.837307 "/><polygon points="56.2818604,69.6808548 56.2818451,69.6808243 56.5072975,69.2905502 56.7798615,69.0002747 56.7745743,68.5988083   56.6160088,68.4401703 56.7910576,67.8366699 56.9076653,67.5928802 57.0691833,66.7843246 56.8961258,66.4933548   56.6525421,65.9707489 56.3613014,65.1128159 56.0272026,64.8558426 55.8581123,62.4486046 55.8484459,62.4488411   55.8530655,62.3768463 55.8482399,62.3081284 55.8574944,62.3079071 55.9318848,61.1488571 55.564415,61.1488571   55.1603432,61.189785 55.0431175,61.0225639 54.2316055,60.5950737 53.7261696,60.3718185 53.308567,60.5243416   52.6259537,60.5027771 52.2508621,60.5066223 51.9257622,60.6895676 51.583149,60.790863 51.3006287,60.675972   50.6407471,60.7996521 50.3801994,60.4492111 50.1070175,60.7451935 49.5275536,60.568634 49.0311813,60.226368   48.4267197,60.4538803 48.182518,59.8814888 47.3359833,59.9112244 46.7657204,59.7694855 46.1049805,59.576992   45.853569,59.1172256 45.3737488,59.2446136 45.0474472,59.0285683 44.5748024,58.744812 44.767189,54.3719025   43.0011902,54.2840691 41.1646576,54.1736755 39.4008217,54.0472336 38.6102524,64.2833786 36.7361259,64.1291351   33.2400017,63.787899 31.5718269,63.5999413 31.5707626,63.7030907 31.7373123,64.0713348 32.3469086,64.9481354   33.2627335,65.7712555 34.3417282,66.9088287 34.8903923,68.1866302 35.2614021,69.4714355 36.2135887,70.2394791   37.772644,71.0378723 39.1623535,69.3352585 40.8590622,69.4026947 42.2507629,70.4224243 43.1901436,72.0645447   43.829937,73.4456329 44.9922333,74.8194351 45.3885803,76.4662933 45.9210739,77.5478287 47.513092,78.3057785   48.9756279,78.8408051 49.6793213,78.7919159 49.3308716,78.0760651 49.2422829,76.942543 49.2423515,76.9388351   49.2868538,75.3250122 49.7872772,74.2657928 50.9440079,73.1517792 52.961834,72.1633606 54.7918396,70.4338913   56.4303856,69.9390335 56.2818451,69.6808929 "/><polygon points="25.8604069,51.1360168 28.4041691,51.5409508 29.6724949,42.6657524 26.2698727,42.075573 26.6431274,39.889183   26.2244968,39.8138046 21.7877903,39.0149384 19.9915371,47.9744225 19.5793781,50.0302734 22.405901,50.5382156 "/><polygon points="43.0089149,54.1436653 44.9138069,54.2383995 44.719017,58.667347 45.1224709,58.909626 45.3987083,59.0924339   45.9240952,58.9529572 46.200367,59.4583244 46.8023224,59.6337166 47.3508148,59.7700348 48.2739906,59.7375526   48.5032234,60.2747803 49.0504112,60.0688324 49.598217,60.4465332 50.0632057,60.5853233 50.3918762,60.2291832   50.7011795,60.6452751 51.3153229,60.5301094 51.5905685,60.6419792 51.8781013,60.5570297 52.2129517,60.366394   52.6274643,60.3622017 53.2859039,60.3828735 53.7311134,60.2203255 54.2927933,60.4685097 55.0218277,60.8523788   55.0416756,58.9711571 55.0436668,56.7607689 54.6483994,54.4250412 54.6371193,54.4251251 54.6373787,54.3599014   54.6246223,54.2845497 54.6376534,54.2844543 54.638237,54.1361465 54.6411552,53.3800507 53.102478,53.3983536   49.8170815,53.3873329 46.5302391,53.3120689 44.7054176,53.2428436 42.8828659,53.152504 41.2363892,53.0542717   41.2363205,53.0554352 41.165329,53.0500259 41.0959854,53.0458908 41.0960541,53.0447464 39.8822021,52.9522476   39.4852371,52.9220047 39.4496651,53.3969688 39.411499,53.9069824 41.1738968,54.0333443 "/><polygon points="11.883215,36.5424309 16.7102089,37.7526207 17.6601315,33.8236198 17.6633244,33.8170052 17.6633587,33.8168564   17.9422073,33.2388687 17.890049,32.9653435 17.6117172,32.7325058 17.7141094,32.3207054 18.077734,31.8445263   18.5132599,31.4924393 18.9000282,30.8353043 19.2530766,30.2986908 19.4606419,30.0643444 19.4555264,29.7601547   19.2423286,29.5230274 18.9892178,29.0358238 15.825285,28.2730694 15.1995335,28.3616924 14.8351192,28.1626778   14.5031872,28.2561073 13.8462238,28.3476486 13.1581345,28.1265945 12.7656155,28.2049122 12.3863335,28.1905937   12.1641064,27.9959049 11.65977,27.7528706 11.3084717,27.7233753 10.6366405,27.7811279 10.227005,27.6645908   9.8632078,27.4551029 9.839241,27.0665836 9.9088755,26.6949234 9.7650738,26.2303143 9.3702374,25.9725494 9.073946,25.6705246   8.6332703,25.5207481 8.3705778,25.4646339 7.0677938,28.6176033 6.1680708,31.0442085 4.9430771,33.1968765 5.063118,34.5118561   "/><polygon points="41.4647942,49.6517143 41.2458305,52.9139328 42.890522,53.0120697 44.7115631,53.1023064 46.5345306,53.1714935   49.8188667,53.2467232 53.10186,53.2577133 54.6316757,53.2394791 54.608345,50.8779793 54.5906296,48.4863968   54.1396523,48.2855263 53.9066429,47.7903595 53.7498627,47.5436134 54.0012741,47.1041756 53.9611702,46.8605232   53.7712173,46.866394 53.3518829,46.5657425 50.9648857,46.5657425 46.9387093,46.4845009 44.6641464,46.3931313   41.6761703,46.2233582 "/><polygon points="66.8781281,60.6515923 66.9600601,57.6904678 66.8126678,57.3225174 64.8085938,57.4350052 63.0250626,57.5594177   63.0039978,57.7189674 62.686657,57.9056931 62.6986084,58.2068253 62.6985893,58.2068329 62.6986084,58.2068939   62.4719849,58.8655396 62.2479744,59.016964 61.9475288,59.3299065 61.7779732,59.7964745 61.4106407,60.6061325   61.3964233,61.1191902 61.6499672,61.7102585 61.5846062,62.1449127 61.7399292,62.2775688 61.5766907,62.6291771   61.8763809,63.0757599 61.8124466,63.3614388 62.1013565,63.7643471 61.8180084,64.0388336 61.7520142,64.4736023   61.3899689,64.8539124 61.243351,65.3267288 61.0895233,65.9002228 60.8733406,66.1545181 60.9635086,66.6313858   62.6480637,66.6119537 64.5841675,66.4938354 64.5455093,66.9718018 64.4473724,67.3294525 64.5742111,67.5744095   64.8593445,67.8276749 64.9620056,68.2224808 65.002182,68.3923035 66.0751343,68.3481522 67.1947174,67.7645645   66.8460617,64.3201904 "/><polygon points="76.0984802,48.5632744 76.0446396,48.3910065 75.6919327,48.2278404 75.5218277,47.9590187 75.2494736,48.0312653   74.8710098,48.2173004 74.5354767,48.1293297 74.1156769,48.2518768 73.8001938,48.0973282 73.3965302,47.98563   72.8549042,47.5323181 72.5391464,47.3669205 71.9829559,47.3880005 71.9399033,47.4468536 72.1336975,47.8773003   72.0571976,48.1220512 71.7378616,48.1652107 71.4788971,48.4036446 71.0979691,48.3750763 71.1097107,48.7693977   70.865097,48.9756927 70.6704102,49.4021187 70.4260635,49.5012512 70.092041,50.2535667 69.6210785,50.0642319   69.528923,49.8917274 69.3274994,50.2609138 69.117363,50.5936012 68.684166,50.3554077 68.3444443,50.578392   68.2074432,50.8584747 67.5978928,50.5547676 67.2427139,50.8332024 66.8206482,50.7154961 66.8245621,50.9569855   66.6000748,50.9210014 66.615387,51.01577 66.4502258,51.3272705 66.6445007,51.5531387 66.2729111,51.7893066   65.9221268,51.9899025 66.030838,52.4682083 65.7463303,52.7322578 65.2564087,52.5444717 64.8237686,52.4695854   64.7510452,52.6266403 64.8349152,52.9209518 64.8483582,52.9335747 64.8446274,52.9550247 64.8446503,52.9550705   64.8446274,52.9550858 64.9100266,53.1845055 64.8195801,53.0995216 64.8037872,53.1905518 64.8712921,53.5746727   64.5614395,53.8112869 64.3797989,53.9355164 66.6663437,53.771698 66.6294632,53.4177551 67.1029663,53.3692017   67.1698532,53.4656906 68.2631989,53.3016281 70.3209305,53.1195412 71.3727264,53.0654259 71.8967056,52.9759789   73.5092239,52.8739319 74.7202377,52.638298 75.2179489,52.4416008 75.5494003,52.2613029 75.5729904,52.2178955   75.6777191,52.022934 76.1354294,51.6829643 76.2268295,51.5286407 76.276619,51.4440842 76.2952271,51.2376175   76.2962952,51.236908 76.2963257,51.2366219 76.8373337,50.8772697 76.883934,50.8183022 77.3502426,50.2264709   77.1154633,50.2344055 76.8762054,49.9691544 76.5618896,49.7085762 76.4217911,49.3742371 76.1501236,49.0459442 "/><polygon points="64.0639725,53.9581451 64.1014786,53.9554596 64.4790955,53.6973228 64.7180099,53.5147896 64.6610794,53.1906891   64.696846,52.9842033 64.407402,52.7122421 64.1976776,52.7924156 63.8865852,52.1760063 63.9294395,51.8250504   63.7721062,51.3356514 63.6055069,51.2873039 63.1085854,50.8289108 62.9071007,50.8338203 62.5008278,50.511364   62.2034721,50.1597252 62.3052444,49.7072372 62.4465065,49.3735847 62.5129128,48.993206 62.2151451,48.7095146   61.9040565,48.8688736 61.6286087,48.7584457 61.5731888,48.3484993 61.4133186,47.9562378 61.2662201,47.8739662   60.8267097,47.5786057 60.4634285,47.2016907 60.1416245,46.7395897 59.9440536,46.0392227 60.0614853,45.4943352   59.8431702,45.3360443 59.5166321,45.0057945 57.6557236,45.130024 55.6583595,45.2043991 54.1021538,45.2345467   52.6274643,45.2440262 52.6430016,45.3269157 52.6438103,45.3311691 52.9263306,45.6764221 53.2072716,45.9806442   53.4302216,46.4488487 53.8144836,46.7243767 54.0799751,46.7161713 54.1482353,47.1306152 53.9141273,47.5398369   54.0320396,47.7264595 54.2445831,48.1783295 54.7305832,48.3947868 54.7489891,50.8767738 54.7723389,53.2386551   54.7823639,53.2386551 54.7783127,54.2834473 56.9402847,54.2679291 58.9690285,54.2037544 60.9051361,54.1145134   63.044857,54.1317863 63.2627563,54.475872 62.8567619,55.024437 62.8055992,55.1443405 63.8406258,55.07621 63.9350014,54.5661774   64.0244141,54.232769 64.0434494,54.1006203 63.871067,54.1129684 64.0602951,53.9836121 "/><polygon points="76.9274368,53.823101 77.5084763,53.3222313 77.8142853,53.3184204 78.0279236,52.9123878 78.3526764,52.7701683   78.2932739,52.4931717 78.2939453,52.2898254 77.4668655,52.4599342 74.8204041,52.7675133 74.7509689,52.7755814   73.5226822,53.0140266 71.9093399,53.1161079 71.3841248,53.205658 70.3308182,53.2598076 68.2797546,53.4412079   67.1042023,53.617733 67.0347061,53.5176048 66.7839813,53.5432892 66.8212662,53.9016266 64.1870346,54.0903397   64.1613464,54.2652168 64.0720749,54.5972519 63.9699554,55.1503487 63.9635696,55.3499794 63.7841949,55.7109947   63.484642,55.9455833 63.4393845,56.3191338 63.1701851,56.6305656 63.2354927,57.2911339 63.1293755,57.4111023   64.7998047,57.2946358 66.854454,57.1792564 69.2001114,56.9617081 71.5986938,56.7339325 73.0353775,56.5836639   73.9598389,56.4449234 73.9396667,55.9797478 74.3293839,55.7780228 74.4244995,55.5276375 74.6641693,55.1996193   75.0529327,55.0824661 75.4602966,54.9233475 75.8356705,54.6810684 75.9881897,54.4577446 76.285202,54.2462997   76.2531357,54.0901337 76.7490234,53.645649 "/><polygon points="79.1462708,52.026535 81.4268417,51.7164764 85.0218201,51.0469131 86.9187775,50.6350098 88.7417068,50.2239685   87.9373398,48.9806366 87.368866,48.0061989 86.0115204,47.0155678 85.9968414,47.010231 85.9914474,47.0009117   85.9914169,47.0008888 85.9859543,46.9914474 85.8511124,46.7585754 85.6213379,46.8943443 85.3340759,46.8127327   85.2733688,46.7957306 85.2733994,46.7955017 85.2733688,46.7954903 85.3206863,46.5287132 85.3833847,46.1748199   85.6304703,45.9091225 85.6247025,45.7553978 85.6098633,45.6525574 85.4521255,45.515419 85.0941315,45.3435631   84.6303787,45.2751312 84.7142258,44.9904785 84.516037,44.9011345 84.3195496,44.8835373 84.2050171,45.3637886   83.2166672,44.9440231 83.199295,45.4821129 83.0159378,45.7624702 82.7301178,46.1222839 82.4958038,46.5112152   82.3625107,46.4473495 82.1359558,47.0351601 82.0877686,47.2635727 82.0844574,47.2793961 82.0580673,47.2942543   81.7922516,47.4446907 81.7915115,47.4444122 81.7910843,47.4446564 81.4755936,47.3239174 81.4694138,47.3215599   81.2844772,47.2307053 81.2171783,47.664959 80.9876022,48.1150436 80.9589005,48.4692612 80.9423828,48.4893036   80.6618195,48.8309975 80.5016022,49.2282448 80.5748062,49.4689064 80.571167,49.7227554 80.5692139,49.7244759   80.5691757,49.7267036 80.2744293,49.9864273 80.0228806,49.9973106 79.8217392,50.2068672 79.651619,50.1705017   79.6476517,50.3336372 79.6466904,50.334095 79.6466217,50.3366585 78.938118,50.668663 78.7031174,50.5487595   78.1820984,50.9097404 77.83255,50.7484589 77.580864,50.564518 77.4784164,50.2915115 77.1167984,50.7463417   76.9248276,50.9880257 76.9244614,50.988266 76.9238663,50.9890213 76.4302063,51.3168716 76.4147873,51.4873161   76.349411,51.5976562 76.2421417,51.7798996 75.7866364,52.1192131 75.702713,52.2736626 75.6538925,52.3645821   75.6530838,52.3650169 75.6527252,52.3656807 75.2724762,52.5718384 75.266655,52.5741158 77.4435806,52.3212509   78.294426,52.1461487 78.2944489,52.1420135 78.3532791,52.1340332 78.4351578,52.1171875 78.4351425,52.1229362 "/><polygon points="88.6316071,47.0104675 88.54776,47.1594887 88.292244,48.7193031 88.3466339,48.7349243 88.8791962,46.9316673 "/><polygon points="74.0417862,56.5748711 73.0531616,56.7231369 71.6956329,56.8651543 72.4861984,59.5398407 73.2020493,61.732029   73.5602493,62.4037895 73.7975159,62.823658 73.5158157,63.2803383 73.4956284,63.983963 73.6517868,64.3982697   73.6517868,64.8193741 73.644165,65.1805267 73.7929153,65.4394226 73.9224319,65.6962662 74.2708054,66.2348633   76.2205124,66.0874939 79.5037155,65.9684143 79.6839828,66.2948151 79.817894,66.1488876 79.6980591,65.3435593   79.9904709,65.1941223 80.4199524,65.3043442 80.7705307,65.2842941 80.9278564,63.9776459 81.4704437,62.2595787   81.1933517,62.2105446 80.9594498,62.1441383 80.8876877,61.6843681 80.6480179,61.3212242 80.2189484,61.116993   80.2637177,60.9149551 80.1210861,60.6977425 79.9122467,60.2264366 79.2374649,59.8696785 78.9315948,59.3655472   78.4282227,59.0683975 78.2556458,58.8075104 77.5215988,58.3724632 77.2304916,57.9946251 76.7904968,57.3499184   76.455925,57.260025 75.8393784,56.9233894 76.1162643,56.3802528 76.1816788,56.300415 75.4490891,56.3943596 "/><polygon points="83.6935349,71.1671219 83.5408096,70.283638 82.3583908,68.7393799 81.2901764,66.985878 80.7832336,65.4243927   80.4062195,65.4459457 80.0070877,65.3435593 79.8520203,65.4228058 79.9669113,66.1944885 79.6554108,66.5340729   79.4224014,66.1120758 76.2283401,66.2278595 74.1981506,66.3814163 73.825943,65.8060684 69.8636322,66.2565689   68.808815,66.4823685 68.8009109,66.5749359 69.3039474,67.0899887 69.2348633,67.5983047 69.1626129,67.8049469   71.2721939,67.3170242 73.2967453,68.151123 73.8027344,68.7064896 75.9053726,67.4757919 77.1984863,68.2152634   78.7005768,69.4079819 79.3676682,70.6494598 79.2255173,72.0987396 79.563942,73.145462 80.8113861,74.6589508   82.2055969,76.4516678 83.0886612,76.8568344 83.5777512,77.7994461 84.5926743,77.8995056 85.3510361,77.3773117   85.4305573,75.3580399 84.9864502,73.3504486 "/><polygon points="55.5138016,38.5312767 53.2551384,38.5944901 51.285244,38.5924988 51.2802315,39.0572128 51.4953842,39.3662071   51.4495811,39.6422043 51.3569412,40.0201836 51.235527,40.3497124 51.4950409,40.5938797 51.4918327,40.8218651   51.5624809,41.0384369 51.672493,41.4275742 51.6678238,41.6032753 51.9692307,42.0244827 52.0815125,42.4309578   52.0926361,42.9189148 52.202652,42.9850845 52.3279114,43.2870064 52.5074921,43.9556084 52.5464287,44.3553543   52.4989777,44.7563744 52.5960999,45.1035843 54.1002998,45.0939026 55.654377,45.0637894 57.6484413,44.9895859   59.5714302,44.8611679 59.9390411,45.2329636 60.0740509,45.3301353 60.0847664,45.0143433 60.5182304,44.6471138   60.6137543,44.3040581 60.8054924,43.9215813 60.7263107,43.6229897 60.4825211,43.4417953 60.6430779,42.9575806   61.2566757,42.8039246 61.6128807,42.6599846 61.70504,42.5092125 61.9790497,41.9910393 62.027256,41.4211197   61.8691025,41.2646446 61.5790939,41.0912819 61.4848061,40.853157 61.2850342,40.7522736 61.1887054,40.6033897   61.1849785,40.6036301 61.1646004,40.5660973 61.1011963,40.468071 61.1110535,40.4674339 60.9932442,40.2503777   60.4262772,40.0607338 60.2874184,39.6724548 60.2041855,39.4536972 60.17136,38.9486732 60.2960052,38.7872238   60.0815353,38.4687843 60.0619316,38.3883362 57.9387932,38.4439926 "/></svg>